<svg width="90" height="19" viewBox="0 0 90 19" fill="none" xmlns="http://www.w3.org/2000/svg">
<path d="M5.91458 2.125C6.75042 2.00458 7.63583 2.91833 7.89083 4.17917C8.14583 5.43292 7.68542 6.55208 6.84958 6.67958C6.02083 6.80708 5.12833 5.89333 4.86625 4.6325C4.60417 3.37875 5.07875 2.25958 5.91458 2.125ZM10.9792 2.125C11.8221 2.25958 12.2896 3.37875 12.0417 4.6325C11.7725 5.89333 10.8871 6.80708 10.0512 6.67958C9.20833 6.55208 8.74792 5.43292 9.01 4.17917C9.265 2.91833 10.1504 2.00458 10.9792 2.125ZM2.125 5.38333C2.9325 5.03625 4.03042 5.66667 4.60417 6.76458C5.1425 7.88375 4.95833 9.05958 4.15792 9.40667C3.3575 9.75375 2.26667 9.13042 1.70708 8.01833C1.1475 6.90625 1.34583 5.72333 2.125 5.38333ZM14.875 5.38333C15.6542 5.72333 15.8525 6.90625 15.2929 8.01833C14.7333 9.13042 13.6425 9.75375 12.8421 9.40667C12.0417 9.05958 11.8575 7.88375 12.3958 6.76458C12.9696 5.66667 14.0675 5.03625 14.875 5.38333ZM13.6921 13.0192C13.7204 13.685 13.2104 14.4217 12.6013 14.6979C11.3333 15.2788 9.83167 14.0746 8.42208 14.0746C7.0125 14.0746 5.49667 15.3283 4.25 14.6979C3.54167 14.3508 3.05292 13.43 3.145 12.665C3.2725 11.6096 4.54042 11.0429 5.29125 10.2708C6.29 9.27208 6.99833 7.395 8.42208 7.395C9.83875 7.395 10.5896 9.24375 11.5458 10.2708C12.3321 11.135 13.6425 11.8646 13.6921 13.0192Z" fill="#D97757"/>
<path d="M23.144 15.112C22.8773 15.112 22.6693 15.0373 22.52 14.888C22.3813 14.7387 22.312 14.5307 22.312 14.264V4.568C22.312 4.29067 22.3867 4.08267 22.536 3.944C22.6853 3.79467 22.8933 3.72 23.16 3.72H26.984C28.2 3.72 29.1387 4.024 29.8 4.632C30.4613 5.22933 30.792 6.072 30.792 7.16C30.792 8.25867 30.4613 9.112 29.8 9.72C29.1387 10.3173 28.2 10.616 26.984 10.616H23.976V14.264C23.976 14.5307 23.9067 14.7387 23.768 14.888C23.6293 15.0373 23.4213 15.112 23.144 15.112ZM23.976 9.288H26.744C27.544 9.288 28.1467 9.112 28.552 8.76C28.968 8.39733 29.176 7.864 29.176 7.16C29.176 6.46667 28.968 5.944 28.552 5.592C28.1467 5.22933 27.544 5.048 26.744 5.048H23.976V9.288ZM34.507 15.144C33.963 15.144 33.4723 15.0373 33.035 14.824C32.6083 14.6107 32.2723 14.3227 32.027 13.96C31.7817 13.5973 31.659 13.1867 31.659 12.728C31.659 12.152 31.803 11.6987 32.091 11.368C32.3897 11.0267 32.875 10.7867 33.547 10.648C34.2297 10.4987 35.147 10.424 36.299 10.424H37.051V11.416H36.315C35.547 11.416 34.939 11.4533 34.491 11.528C34.043 11.6027 33.723 11.7307 33.531 11.912C33.3497 12.0827 33.259 12.3227 33.259 12.632C33.259 13.0373 33.3977 13.368 33.675 13.624C33.9523 13.8693 34.3363 13.992 34.827 13.992C35.2217 13.992 35.5683 13.9013 35.867 13.72C36.1657 13.528 36.4003 13.272 36.571 12.952C36.7523 12.632 36.843 12.264 36.843 11.848V10.008C36.843 9.4 36.715 8.96267 36.459 8.696C36.203 8.42933 35.7817 8.296 35.195 8.296C34.8537 8.296 34.4963 8.33867 34.123 8.424C33.7603 8.50933 33.3817 8.65333 32.987 8.856C32.8057 8.94133 32.651 8.968 32.523 8.936C32.395 8.904 32.2937 8.83467 32.219 8.728C32.1443 8.61067 32.1017 8.488 32.091 8.36C32.091 8.22133 32.123 8.088 32.187 7.96C32.2617 7.832 32.3843 7.736 32.555 7.672C33.0243 7.448 33.4883 7.288 33.947 7.192C34.4057 7.096 34.8377 7.048 35.243 7.048C35.9577 7.048 36.5443 7.16 37.003 7.384C37.4723 7.608 37.819 7.94933 38.043 8.408C38.267 8.86667 38.379 9.45867 38.379 10.184V14.296C38.379 14.552 38.315 14.7547 38.187 14.904C38.059 15.0427 37.8723 15.112 37.627 15.112C37.3923 15.112 37.2057 15.0427 37.067 14.904C36.9283 14.7547 36.859 14.552 36.859 14.296V13.256H37.003C36.9177 13.6507 36.7577 13.992 36.523 14.28C36.299 14.5573 36.0163 14.7707 35.675 14.92C35.3337 15.0693 34.9443 15.144 34.507 15.144ZM43.3746 15.112C43.1506 15.112 42.9533 15.0587 42.7826 14.952C42.6226 14.8347 42.4946 14.6533 42.3986 14.408L40.0466 8.184C39.9613 7.97067 39.9346 7.784 39.9666 7.624C39.9986 7.45333 40.0786 7.32 40.2066 7.224C40.3453 7.128 40.5213 7.08 40.7346 7.08C40.9266 7.08 41.0813 7.128 41.1986 7.224C41.3266 7.30933 41.4333 7.48 41.5186 7.736L43.6146 13.64H43.2306L45.4066 7.672C45.4813 7.46933 45.5826 7.32 45.7106 7.224C45.8386 7.128 46.004 7.08 46.2066 7.08C46.4093 7.08 46.5746 7.128 46.7026 7.224C46.8413 7.32 46.9426 7.46933 47.0066 7.672L49.1346 13.64H48.7826L50.9106 7.704C50.996 7.45867 51.1026 7.29333 51.2306 7.208C51.3693 7.12267 51.524 7.08 51.6946 7.08C51.908 7.08 52.068 7.13333 52.1746 7.24C52.292 7.34667 52.356 7.48533 52.3666 7.656C52.388 7.816 52.3613 7.992 52.2866 8.184L49.9346 14.408C49.8386 14.6427 49.7053 14.8187 49.5346 14.936C49.3746 15.0533 49.188 15.112 48.9746 15.112C48.7506 15.112 48.5533 15.0533 48.3826 14.936C48.2226 14.8187 48.0946 14.6427 47.9986 14.408L45.7586 8.344H46.5586L44.3346 14.408C44.2493 14.6427 44.1213 14.8187 43.9506 14.936C43.7906 15.0533 43.5986 15.112 43.3746 15.112ZM55.1139 15.112C54.8365 15.112 54.6179 15.0373 54.4579 14.888C54.3085 14.7387 54.2339 14.52 54.2339 14.232V4.616C54.2339 4.328 54.3085 4.10933 54.4579 3.96C54.6179 3.8 54.8419 3.72 55.1299 3.72H60.8259C61.0605 3.72 61.2312 3.77867 61.3379 3.896C61.4552 4.00267 61.5139 4.16267 61.5139 4.376C61.5139 4.6 61.4552 4.77067 61.3379 4.888C61.2312 5.00533 61.0605 5.064 60.8259 5.064H55.8979V8.664H60.5059C60.7192 8.664 60.8845 8.72267 61.0019 8.84C61.1299 8.94667 61.1939 9.10667 61.1939 9.32C61.1939 9.544 61.1299 9.71467 61.0019 9.832C60.8845 9.94933 60.7192 10.008 60.5059 10.008H55.8979V14.232C55.8979 14.8187 55.6365 15.112 55.1139 15.112ZM66.2844 15.144C65.431 15.144 64.695 14.984 64.0764 14.664C63.4684 14.3333 62.9937 13.8693 62.6524 13.272C62.3217 12.664 62.1564 11.944 62.1564 11.112C62.1564 10.3013 62.3217 9.592 62.6524 8.984C62.983 8.376 63.4364 7.90133 64.0124 7.56C64.5884 7.21867 65.2444 7.048 65.9804 7.048C66.5244 7.048 67.0097 7.13867 67.4364 7.32C67.863 7.49067 68.2257 7.74667 68.5244 8.088C68.8337 8.41867 69.063 8.824 69.2124 9.304C69.3724 9.784 69.4524 10.3227 69.4524 10.92C69.4524 11.1013 69.399 11.24 69.2924 11.336C69.1857 11.4213 69.0257 11.464 68.8124 11.464H63.4364V10.472H68.3644L68.0924 10.696C68.0924 10.1627 68.0124 9.70933 67.8524 9.336C67.703 8.96267 67.4737 8.68 67.1644 8.488C66.8657 8.28533 66.4924 8.184 66.0444 8.184C65.543 8.184 65.1164 8.30133 64.7644 8.536C64.423 8.77067 64.1617 9.096 63.9804 9.512C63.799 9.928 63.7084 10.4133 63.7084 10.968V11.064C63.7084 12.0027 63.927 12.712 64.3644 13.192C64.8124 13.6613 65.4577 13.896 66.3004 13.896C66.6204 13.896 66.9564 13.8533 67.3084 13.768C67.671 13.6827 68.0124 13.5387 68.3324 13.336C68.5137 13.2293 68.6737 13.1813 68.8124 13.192C68.9617 13.2027 69.079 13.2507 69.1644 13.336C69.2604 13.4213 69.319 13.528 69.3404 13.656C69.3617 13.784 69.3404 13.9173 69.2764 14.056C69.2124 14.184 69.1004 14.3013 68.9404 14.408C68.5777 14.6533 68.1564 14.84 67.6764 14.968C67.1964 15.0853 66.7324 15.144 66.2844 15.144ZM74.8781 15.144C74.0248 15.144 73.2888 14.984 72.6701 14.664C72.0621 14.3333 71.5875 13.8693 71.2461 13.272C70.9155 12.664 70.7501 11.944 70.7501 11.112C70.7501 10.3013 70.9155 9.592 71.2461 8.984C71.5768 8.376 72.0301 7.90133 72.6061 7.56C73.1821 7.21867 73.8381 7.048 74.5741 7.048C75.1181 7.048 75.6035 7.13867 76.0301 7.32C76.4568 7.49067 76.8195 7.74667 77.1181 8.088C77.4275 8.41867 77.6568 8.824 77.8061 9.304C77.9661 9.784 78.0461 10.3227 78.0461 10.92C78.0461 11.1013 77.9928 11.24 77.8861 11.336C77.7795 11.4213 77.6195 11.464 77.4061 11.464H72.0301V10.472H76.9581L76.6861 10.696C76.6861 10.1627 76.6061 9.70933 76.4461 9.336C76.2968 8.96267 76.0675 8.68 75.7581 8.488C75.4595 8.28533 75.0861 8.184 74.6381 8.184C74.1368 8.184 73.7101 8.30133 73.3581 8.536C73.0168 8.77067 72.7555 9.096 72.5741 9.512C72.3928 9.928 72.3021 10.4133 72.3021 10.968V11.064C72.3021 12.0027 72.5208 12.712 72.9581 13.192C73.4061 13.6613 74.0515 13.896 74.8941 13.896C75.2141 13.896 75.5501 13.8533 75.9021 13.768C76.2648 13.6827 76.6061 13.5387 76.9261 13.336C77.1075 13.2293 77.2675 13.1813 77.4061 13.192C77.5555 13.2027 77.6728 13.2507 77.7581 13.336C77.8541 13.4213 77.9128 13.528 77.9341 13.656C77.9555 13.784 77.9341 13.9173 77.8701 14.056C77.8061 14.184 77.6941 14.3013 77.5341 14.408C77.1715 14.6533 76.7501 14.84 76.2701 14.968C75.7901 15.0853 75.3261 15.144 74.8781 15.144ZM82.7839 15.144C82.1012 15.144 81.4985 14.984 80.9759 14.664C80.4639 14.3333 80.0639 13.864 79.7759 13.256C79.4879 12.6373 79.3439 11.9173 79.3439 11.096C79.3439 10.2533 79.4879 9.53333 79.7759 8.936C80.0639 8.33867 80.4639 7.87467 80.9759 7.544C81.4985 7.21333 82.1012 7.048 82.7839 7.048C83.4665 7.048 84.0532 7.21867 84.5439 7.56C85.0452 7.89067 85.3812 8.33867 85.5519 8.904H85.3759V4.424C85.3759 4.15733 85.4452 3.95467 85.5839 3.816C85.7225 3.67733 85.9199 3.608 86.1759 3.608C86.4319 3.608 86.6292 3.67733 86.7679 3.816C86.9172 3.95467 86.9919 4.15733 86.9919 4.424V14.296C86.9919 14.552 86.9225 14.7547 86.7839 14.904C86.6452 15.0427 86.4479 15.112 86.1919 15.112C85.9359 15.112 85.7385 15.0427 85.5999 14.904C85.4612 14.7547 85.3919 14.552 85.3919 14.296V12.888L85.5679 13.24C85.3972 13.816 85.0612 14.28 84.5599 14.632C84.0692 14.9733 83.4772 15.144 82.7839 15.144ZM83.1999 13.896C83.6372 13.896 84.0212 13.7893 84.3519 13.576C84.6825 13.3627 84.9385 13.048 85.1199 12.632C85.3119 12.216 85.4079 11.704 85.4079 11.096C85.4079 10.1787 85.2052 9.48533 84.7999 9.016C84.3945 8.54667 83.8612 8.312 83.1999 8.312C82.7519 8.312 82.3625 8.41867 82.0319 8.632C81.7012 8.83467 81.4399 9.144 81.2479 9.56C81.0665 9.976 80.9759 10.488 80.9759 11.096C80.9759 12.0027 81.1785 12.696 81.5839 13.176C81.9892 13.656 82.5279 13.896 83.1999 13.896Z" fill="#522314"/>
</svg>
