<svg width="108" height="24" viewBox="0 0 108 24" fill="none" xmlns="http://www.w3.org/2000/svg">
<path d="M1.2642 19V4.45455H7.00284C8.10606 4.45455 9.04593 4.66525 9.82244 5.08665C10.599 5.50331 11.1908 6.08333 11.598 6.8267C12.0099 7.56534 12.2159 8.41761 12.2159 9.38352C12.2159 10.3494 12.0076 11.2017 11.5909 11.9403C11.1742 12.679 10.5705 13.2543 9.77983 13.6662C8.99384 14.0781 8.04214 14.2841 6.92472 14.2841H3.26705V11.8196H6.42756C7.01941 11.8196 7.5071 11.7178 7.89062 11.5142C8.27888 11.3059 8.56771 11.0194 8.7571 10.6548C8.95123 10.2855 9.0483 9.86174 9.0483 9.38352C9.0483 8.90057 8.95123 8.47917 8.7571 8.11932C8.56771 7.75473 8.27888 7.47301 7.89062 7.27415C7.50237 7.07055 7.00994 6.96875 6.41335 6.96875H4.33949V19H1.2642ZM16.9744 19.206C16.2784 19.206 15.6581 19.0852 15.1136 18.8438C14.5691 18.5975 14.1383 18.2353 13.821 17.7571C13.5085 17.2741 13.3523 16.6728 13.3523 15.9531C13.3523 15.3471 13.4635 14.8381 13.6861 14.4261C13.9086 14.0142 14.2116 13.6828 14.5952 13.4318C14.9787 13.1809 15.4143 12.9915 15.902 12.8636C16.3944 12.7358 16.9105 12.6458 17.4503 12.5938C18.0848 12.5275 18.5961 12.4659 18.9844 12.4091C19.3726 12.3475 19.6544 12.2576 19.8295 12.1392C20.0047 12.0208 20.0923 11.8456 20.0923 11.6136V11.571C20.0923 11.1212 19.9503 10.7732 19.6662 10.527C19.3868 10.2808 18.9891 10.1577 18.473 10.1577C17.9285 10.1577 17.4953 10.2784 17.1733 10.5199C16.8513 10.7566 16.6383 11.0549 16.5341 11.4148L13.7358 11.1875C13.8778 10.5246 14.1572 9.9517 14.5739 9.46875C14.9905 8.98106 15.5279 8.60701 16.1861 8.34659C16.849 8.08144 17.616 7.94886 18.4872 7.94886C19.0933 7.94886 19.6733 8.01989 20.2273 8.16193C20.786 8.30398 21.2808 8.52415 21.7116 8.82244C22.1473 9.12074 22.4905 9.50426 22.7415 9.97301C22.9924 10.437 23.1179 10.9934 23.1179 11.642V19H20.2486V17.4872H20.1634C19.9882 17.8281 19.7538 18.1288 19.4602 18.3892C19.1667 18.6449 18.8139 18.8461 18.402 18.9929C17.9901 19.1349 17.5142 19.206 16.9744 19.206ZM17.8409 17.1179C18.286 17.1179 18.679 17.0303 19.0199 16.8551C19.3608 16.6752 19.6283 16.4337 19.8224 16.1307C20.0166 15.8277 20.1136 15.4844 20.1136 15.1009V13.9432C20.0189 14.0047 19.8887 14.0616 19.723 14.1136C19.562 14.161 19.3797 14.206 19.1761 14.2486C18.9725 14.2865 18.7689 14.322 18.5653 14.3551C18.3617 14.3835 18.1771 14.4096 18.0114 14.4332C17.6563 14.4853 17.3461 14.5682 17.081 14.6818C16.8158 14.7955 16.6098 14.9493 16.4631 15.1435C16.3163 15.3329 16.2429 15.5696 16.2429 15.8537C16.2429 16.2656 16.392 16.5805 16.6903 16.7983C16.9934 17.0114 17.3769 17.1179 17.8409 17.1179ZM27.6172 19L24.6484 8.09091H27.7095L29.3999 15.4205H29.4993L31.2607 8.09091H34.2649L36.0547 15.3778H36.147L37.8089 8.09091H40.8629L37.9013 19H34.6982L32.8232 12.1392H32.6882L30.8132 19H27.6172ZM61.0494 19V4.45455H70.68V6.99006H64.1246V10.456H70.0408V12.9915H64.1246V19H61.0494ZM76.8626 19.2131C75.7404 19.2131 74.7745 18.9858 73.9648 18.5312C73.1599 18.072 72.5397 17.4233 72.104 16.5852C71.6684 15.7424 71.4506 14.7457 71.4506 13.5952C71.4506 12.473 71.6684 11.4882 72.104 10.6406C72.5397 9.79309 73.1528 9.13258 73.9435 8.65909C74.739 8.18561 75.6718 7.94886 76.7418 7.94886C77.4615 7.94886 78.1315 8.06487 78.7518 8.29688C79.3768 8.52415 79.9213 8.86742 80.3853 9.3267C80.854 9.78598 81.2186 10.3636 81.479 11.0597C81.7395 11.7509 81.8697 12.5606 81.8697 13.4886V14.3196H72.658V12.4446H79.0217C79.0217 12.009 78.927 11.6231 78.7376 11.2869C78.5482 10.9508 78.2854 10.688 77.9492 10.4986C77.6178 10.3045 77.2319 10.2074 76.7915 10.2074C76.3323 10.2074 75.9251 10.3139 75.57 10.527C75.2196 10.7353 74.945 11.017 74.7461 11.3722C74.5472 11.7225 74.4454 12.1132 74.4407 12.544V14.3267C74.4407 14.8665 74.5401 15.3329 74.739 15.7259C74.9426 16.1188 75.229 16.4219 75.5984 16.6349C75.9677 16.848 76.4057 16.9545 76.9123 16.9545C77.2485 16.9545 77.5562 16.9072 77.8356 16.8125C78.1149 16.7178 78.354 16.5758 78.5529 16.3864C78.7518 16.197 78.9033 15.965 79.0075 15.6903L81.8058 15.875C81.6637 16.5473 81.3725 17.1345 80.9322 17.6364C80.4966 18.1335 79.9331 18.5218 79.2418 18.8011C78.5553 19.0758 77.7622 19.2131 76.8626 19.2131ZM88.8157 19.2131C87.6935 19.2131 86.7276 18.9858 85.918 18.5312C85.113 18.072 84.4928 17.4233 84.0572 16.5852C83.6216 15.7424 83.4038 14.7457 83.4038 13.5952C83.4038 12.473 83.6216 11.4882 84.0572 10.6406C84.4928 9.79309 85.1059 9.13258 85.8967 8.65909C86.6921 8.18561 87.6249 7.94886 88.695 7.94886C89.4147 7.94886 90.0846 8.06487 90.7049 8.29688C91.3299 8.52415 91.8744 8.86742 92.3384 9.3267C92.8072 9.78598 93.1718 10.3636 93.4322 11.0597C93.6926 11.7509 93.8228 12.5606 93.8228 13.4886V14.3196H84.6112V12.4446H90.9748C90.9748 12.009 90.8801 11.6231 90.6907 11.2869C90.5013 10.9508 90.2385 10.688 89.9023 10.4986C89.5709 10.3045 89.185 10.2074 88.7447 10.2074C88.2854 10.2074 87.8782 10.3139 87.5231 10.527C87.1727 10.7353 86.8981 11.017 86.6992 11.3722C86.5004 11.7225 86.3986 12.1132 86.3938 12.544V14.3267C86.3938 14.8665 86.4933 15.3329 86.6921 15.7259C86.8957 16.1188 87.1822 16.4219 87.5515 16.6349C87.9208 16.848 88.3588 16.9545 88.8654 16.9545C89.2016 16.9545 89.5094 16.9072 89.7887 16.8125C90.0681 16.7178 90.3072 16.5758 90.506 16.3864C90.7049 16.197 90.8564 15.965 90.9606 15.6903L93.7589 15.875C93.6168 16.5473 93.3256 17.1345 92.8853 17.6364C92.4497 18.1335 91.8862 18.5218 91.195 18.8011C90.5084 19.0758 89.7153 19.2131 88.8157 19.2131ZM99.8171 19.1776C98.9885 19.1776 98.238 18.9645 97.5657 18.5384C96.8981 18.1075 96.3678 17.4754 95.9748 16.642C95.5865 15.804 95.3924 14.7765 95.3924 13.5597C95.3924 12.3097 95.5936 11.2704 95.9961 10.4418C96.3986 9.60843 96.9336 8.9858 97.6012 8.57386C98.2736 8.1572 99.0098 7.94886 99.81 7.94886C100.421 7.94886 100.93 8.05303 101.337 8.26136C101.749 8.46496 102.08 8.72064 102.331 9.02841C102.587 9.33144 102.781 9.62973 102.914 9.9233H103.006V4.45455H106.025V19H103.042V17.2528H102.914C102.772 17.5559 102.57 17.8565 102.31 18.1548C102.054 18.4484 101.721 18.6922 101.309 18.8864C100.901 19.0805 100.404 19.1776 99.8171 19.1776ZM100.776 16.7699C101.264 16.7699 101.676 16.6373 102.012 16.3722C102.353 16.1023 102.613 15.7259 102.793 15.2429C102.978 14.7599 103.07 14.1941 103.07 13.5455C103.07 12.8968 102.98 12.3333 102.8 11.8551C102.62 11.3769 102.36 11.0076 102.019 10.7472C101.678 10.4867 101.264 10.3565 100.776 10.3565C100.279 10.3565 99.8597 10.4915 99.5188 10.7614C99.1779 11.0312 98.9199 11.4053 98.7447 11.8835C98.5695 12.3617 98.4819 12.9157 98.4819 13.5455C98.4819 14.1799 98.5695 14.741 98.7447 15.2287C98.9246 15.7116 99.1826 16.0904 99.5188 16.3651C99.8597 16.6349 100.279 16.7699 100.776 16.7699Z" fill="#F97316"/>
<path d="M47.9146 6.125C48.7504 6.00458 49.6358 6.91833 49.8908 8.17917C50.1458 9.43292 49.6854 10.5521 48.8496 10.6796C48.0208 10.8071 47.1283 9.89333 46.8662 8.6325C46.6042 7.37875 47.0788 6.25958 47.9146 6.125ZM52.9792 6.125C53.8221 6.25958 54.2896 7.37875 54.0417 8.6325C53.7725 9.89333 52.8871 10.8071 52.0512 10.6796C51.2083 10.5521 50.7479 9.43292 51.01 8.17917C51.265 6.91833 52.1504 6.00458 52.9792 6.125ZM44.125 9.38333C44.9325 9.03625 46.0304 9.66667 46.6042 10.7646C47.1425 11.8838 46.9583 13.0596 46.1579 13.4067C45.3575 13.7538 44.2667 13.1304 43.7071 12.0183C43.1475 10.9063 43.3458 9.72333 44.125 9.38333ZM56.875 9.38333C57.6542 9.72333 57.8525 10.9063 57.2929 12.0183C56.7333 13.1304 55.6425 13.7538 54.8421 13.4067C54.0417 13.0596 53.8575 11.8838 54.3958 10.7646C54.9696 9.66667 56.0675 9.03625 56.875 9.38333ZM55.6921 17.0192C55.7204 17.685 55.2104 18.4217 54.6013 18.6979C53.3333 19.2788 51.8317 18.0746 50.4221 18.0746C49.0125 18.0746 47.4967 19.3283 46.25 18.6979C45.5417 18.3508 45.0529 17.43 45.145 16.665C45.2725 15.6096 46.5404 15.0429 47.2912 14.2708C48.29 13.2721 48.9983 11.395 50.4221 11.395C51.8387 11.395 52.5896 13.2438 53.5458 14.2708C54.3321 15.135 55.6425 15.8646 55.6921 17.0192Z" fill="#F97316"/>
</svg>
